<?xml version="1.0" encoding="UTF-8"?>
<svg
  version="1.1"
  viewBox="0 0 400 400"
  xmlns="http://www.w3.org/2000/svg"
>
  <g fill-rule="evenodd">
    <path
      d="m78.921 73.064-5.248 4.954 111.23 0.057c61.174 0.032 111.23 0.097 111.23 0.145 0 0.098-1.523 3.509-6.825 15.288-2.03 4.51-6.06 13.479-8.955 19.932-2.895 6.452-5.279 11.757-5.297 11.789-0.019 0.032-44.489 0.057-98.823 0.056-103.96-1e-3 -101.37-0.027-105.13 1.05-8.574 2.456-12.791 8.221-12.782 17.473 9e-3 8.952 4.026 15.291 11.562 18.244 3.288 1.289 3.002 1.273 23.332 1.28 23.955 9e-3 25.281 0.108 32.286 2.404 12.774 4.189 28.91 16.488 36.416 27.757 8.345 12.528 13.208 33.855 10.91 47.851-5.071 30.895-27.006 51.988-60.067 57.763l-2.847 0.497-57.933-0.272 3.104 4.783 3.104 4.784 28.596-0.079c27.878-0.077 28.656-0.091 30.988-0.553 26.746-5.299 50.296-23.887 59.787-47.19 17.712-43.486-6.132-92.504-51.3-105.46-8.988-2.579-11.195-2.767-32.544-2.767-18.409 0-19.015-0.029-21.27-1.041-6.7-3.007-6.093-13.926 0.908-16.331l1.48-0.509 207.52-0.13 3.398-7.794c1.868-4.286 5.421-12.406 7.894-18.044s7.438-16.965 11.033-25.171 6.632-15.1 6.749-15.319c0.203-0.379-5.273-0.399-113.52-0.398h-113.73l-5.248 4.954m-55.003 121.74v6.727l1.879 1.797c5.149 4.922 10.651 8.486 18.922 12.257 8.402 3.83 15.716 6.531 21.112 7.797l2.62 0.615 20.046 0.131c18.747 0.123 20.119 0.158 21.184 0.552 8.317 3.075 8.675 13.329 0.581 16.607l-1.264 0.512-40.775 0.113c-26.988 0.076-40.763 0.191-40.742 0.342 0.142 0.991 2.715 9.604 2.909 9.737 0.136 0.094 17.828 0.145 39.314 0.114l39.066-0.056 2.191-0.606c14.152-3.912 19.166-18.08 10.51-29.698-2.895-3.885-6.672-6.444-10.942-7.412-0.72-0.164-7.095-0.238-19.299-0.224l-18.223 0.02-3.375-0.568c-19.342-3.255-27.259-7.341-41.671-21.509l-4.043-3.975v6.727m345.56 16.698v3.987h-2.05-2.05v-2.705c0-4.047-0.029-4.13-1.452-4.125-1.844 5e-3 -1.819-0.049-1.627 3.529 0.197 3.677 0.295 3.52-2.217 3.525l-1.766 4e-3v-2.587c0-1.422-0.066-3.216-0.146-3.986l-0.146-1.4h-1.484-1.484l0.149 3.588c0.082 1.973 0.149 4.525 0.149 5.671l1e-3 2.084 8.485-0.118c4.667-0.065 8.568-0.193 8.669-0.285s0.11-2.643 0.022-5.668l-0.162-5.5h-1.445-1.446v3.986m-11.048 12.123c-5.413 2.188-5.201 10.46 0.308 11.993 7.76 2.159 12.858 0.213 13.199-5.037 0.3-4.635-2.042-6.715-8.074-7.17l-0.946-0.071-0.132 1.029c-0.073 0.566-0.199 2.012-0.282 3.215l-0.149 2.186 0.886 0.146c1.869 0.309 1.846 0.325 2.026-1.464l0.162-1.615 0.829 0.155c3.027 0.568 3.859 4.458 1.222 5.709-1.372 0.651-7.516 0.137-8.856-0.742-1.845-1.208-1.121-4.792 1.054-5.228 0.566-0.113 0.689-0.249 0.689-0.761 0-0.342 0.066-1.098 0.145-1.68 0.169-1.228-0.308-1.381-2.081-0.665m-5.334 16.932c-0.34 1.584-0.311 1.988 0.152 2.131 0.219 0.068 3.884 0.793 8.144 1.613 4.259 0.819 7.869 1.535 8.021 1.59 0.171 0.063 0.33-0.22 0.419-0.743 0.079-0.464 0.234-1.197 0.344-1.628 0.258-1.009 1.172-0.721-8.016-2.526-9.695-1.905-8.759-1.86-9.064-0.437m1.083 7.775c-1.093 0.291-2.59 1.591-3.194 2.773-0.621 1.218-2.305 7.461-2.072 7.682 0.39 0.369 16.351 4.494 16.495 4.262 0.448-0.726 1.792-6.647 1.792-7.897 0-2.51-1.374-4.383-3.911-5.332-3.544-1.326-7.372-1.951-9.11-1.488m4.59 3.738c3.72 0.938 4.9 1.617 5.367 3.089 0.139 0.439-0.431 3.227-0.773 3.781-0.142 0.229-10.26-2.226-10.723-2.601-0.156-0.126 0.411-2.343 0.82-3.205 0.818-1.725 1.859-1.934 5.309-1.064m-12.172 12.313c-0.73 1.824-1.176 1.446 4.259 3.615 2.475 0.987 4.499 1.853 4.499 1.925 0 0.071-2.68 0.635-5.955 1.254l-5.956 1.124-0.548 1.24c-0.692 1.564-0.666 1.615 1.216 2.364 0.859 0.342 4.365 1.751 7.792 3.132 3.426 1.381 6.309 2.461 6.405 2.401 0.243-0.149 1.234-2.84 1.097-2.977-0.061-0.061-2.25-0.972-4.864-2.026-3.687-1.485-4.627-1.944-4.191-2.046 0.309-0.072 2.51-0.498 4.89-0.946 2.381-0.449 4.911-0.927 5.624-1.063l1.296-0.247 0.5-1.336c0.275-0.735 0.44-1.397 0.366-1.471-0.104-0.104-15.638-6.457-15.788-6.457-0.02 0-0.309 0.681-0.642 1.514m-11.943 14.948-0.678 1.175 1.293 0.734c0.711 0.405 1.353 0.665 1.427 0.579 0.073-0.087 0.396-0.619 0.717-1.184l0.584-1.026-1.332-0.727-1.332-0.726-0.679 1.175m-2.611 4.695c-0.47 0.864-0.541 1.163-0.321 1.34 0.309 0.246 2.137 1.193 2.306 1.193 0.099 0 1.282-2.019 1.282-2.188 0-0.102-2.345-1.451-2.527-1.454-0.074-1e-3 -0.407 0.498-0.74 1.109m5.453-0.063c-0.485 0.868-0.537 1.115-0.304 1.44 0.558 0.778 11.652 13.457 11.774 13.456 0.069 0 0.47-0.667 0.891-1.482l0.766-1.482-1.04-1.218-1.041-1.219 1.449-2.595c1.071-1.92 1.558-2.587 1.869-2.565 0.231 0.016 0.984 0.102 1.673 0.189l1.253 0.159 0.734-1.429c0.404-0.786 0.691-1.473 0.637-1.526-0.125-0.125-16.909-2.776-17.574-2.776-0.359 0-0.668 0.298-1.087 1.048m9.604 3.305 1.427 0.25-0.971 1.798c-1.185 2.195-0.886 2.23-3.167-0.373-2.379-2.714-2.364-2.625-0.377-2.244 0.914 0.175 2.304 0.431 3.088 0.569m-16.408 7.787c-1.322 1.905-2.926 4.205-3.565 5.111l-1.163 1.647 1.265 0.839 1.264 0.84 0.39-0.546c0.215-0.301 0.749-1.054 1.187-1.673 1.084-1.531 0.598-1.721 6.944 2.718 3.13 2.189 5.714 3.981 5.743 3.981 0.111 0 1.929-2.772 1.855-2.829-0.042-0.032-2.332-1.627-5.088-3.544-2.757-1.916-5.347-3.733-5.757-4.038l-0.745-0.554 1.29-1.83c0.709-1.007 1.194-1.897 1.076-1.978s-0.682-0.476-1.254-0.877l-1.039-0.73-2.403 3.463m-6.699 10.378c-4.789 1.655-6.709 7.095-3.6 10.203 2.33 2.33 4.165 2.066 8.271-1.188 2.41-1.91 4.686 0.134 2.994 2.689-0.847 1.278-2.019 2.198-3.266 2.565-1.657 0.487-1.551 3.478 0.114 3.212 4.97-0.795 8.549-7.154 5.955-10.581-2.138-2.826-4.847-2.807-8.339 0.057-1.833 1.503-2.739 1.671-3.721 0.69-1.237-1.238 0.227-3.958 2.56-4.757 0.834-0.285 0.9-0.373 0.967-1.279 0.154-2.079-0.062-2.258-1.935-1.611m-12.044 11.991c-0.62 0.312-2.346 1.723-3.839 3.136l-2.713 2.569 1.671 1.818c1.608 1.748 6.981 7.485 9.107 9.724l1.025 1.079 2.496-2.254-0.904-0.974c-0.496-0.536-1.566-1.665-2.377-2.508l-1.474-1.535 0.775-0.8c0.971-1.001 0.669-1.031 4.539 0.452 1.797 0.689 3.364 1.253 3.482 1.253 0.231 0 2.917-2.301 2.916-2.499 0-0.067-1.744-0.733-3.876-1.483-3.087-1.084-3.848-1.432-3.734-1.708 1.714-4.141-3.02-8.325-7.094-6.27m-198.51 0.133c-1.187 0.536-4.858 4.186-6.261 6.226-2.822 4.1 0.422 9.809 5.562 9.789 1.999-8e-3 3.101-0.597 5.22-2.79l1.673-1.732-2.357-2.218c-2.74-2.578-2.355-2.45-3.488-1.164l-0.903 1.025 1.074 0.972c1.275 1.154 1.298 1.297 0.334 2.031-2.941 2.238-6.429-1.169-4.262-4.162 1.327-1.832 4.624-4.965 5.406-5.136 2.352-0.517 4.328 1.827 3.462 4.106-0.218 0.572-0.147 0.697 0.968 1.7 1.367 1.23 1.552 1.194 2.097-0.405 1.757-5.155-3.695-10.426-8.525-8.242m202.11 3.402c1.098 1.206 0.903 2.09-0.839 3.799-1.797 1.762-1.586 1.774-3.332-0.191l-1.446-1.627 1.128-1.008c2.367-2.113 3.271-2.309 4.489-0.973m-193 11.314c-2.693 3.711-4.963 6.86-5.044 6.998-0.128 0.218 1.537 1.502 7.913 6.105l1.169 0.845 0.861-1.249c0.473-0.687 0.82-1.283 0.771-1.323-0.049-0.041-1.268-0.926-2.708-1.967-1.441-1.042-2.846-2.068-3.123-2.28l-0.502-0.387 1.045-1.456c0.575-0.8 1.125-1.544 1.224-1.653s1.424 0.696 2.946 1.789c1.521 1.093 2.791 1.951 2.823 1.906 0.031-0.044 0.432-0.603 0.89-1.241l0.834-1.16-2.601-1.86c-3.204-2.292-3.051-1.966-1.767-3.761 1.271-1.775 0.889-1.849 4.635 0.891l2.999 2.194 0.519-0.647c0.286-0.356 0.683-0.921 0.883-1.257l0.363-0.61-4.571-3.319c-2.514-1.826-4.591-3.316-4.616-3.313-0.025 4e-3 -2.249 3.044-4.943 6.755m175.44-3.544c-2.871 2.093-4.359 3.316-4.282 3.517 0.104 0.271 4.231 6.013 8.176 11.375 0.737 1.002 1.423 1.967 1.523 2.145 0.161 0.285 8.823-5.696 9.25-6.386 0.189-0.306-1.515-2.495-1.803-2.318-0.145 0.089-1.573 1.114-3.174 2.278s-2.984 2.111-3.075 2.105c-0.176-0.014-2.062-2.583-2.244-3.057-0.063-0.164 0.996-1.076 2.523-2.172 1.447-1.039 2.631-1.943 2.631-2.01 0-0.243-1.486-2.305-1.666-2.31-0.102-4e-3 -1.319 0.814-2.704 1.816-3.01 2.179-2.683 2.144-3.952 0.421-1.288-1.75-1.419-1.496 2.076-4.019 3.444-2.486 3.291-2.254 2.332-3.558-0.986-1.34-0.579-1.497-5.611 2.173m-8.428 5.672c-1.069 0.678-1.407 1.013-1.319 1.307 0.41 1.366 2.647 10.604 2.584 10.668-0.068 0.068-3.537-2.983-7.186-6.32-1.445-1.321-1.269-1.305-3.004-0.272-1.336 0.796-1.38 0.85-0.984 1.22 0.227 0.213 3.078 2.673 6.336 5.467 3.257 2.794 6.157 5.291 6.443 5.548l0.521 0.467 1.036-0.56c0.569-0.308 1.07-0.614 1.112-0.68 0.043-0.066-0.43-2.372-1.05-5.125-0.621-2.753-1.509-6.723-1.975-8.821-0.465-2.099-0.898-3.815-0.961-3.814-0.063 2e-3 -0.762 0.413-1.553 0.915m-153.92 7.068c-2.344 3.89-4.306 7.247-4.359 7.46-0.085 0.343 2.541 2.09 2.749 1.83 0.034-0.042 0.807-1.332 1.719-2.867s1.713-2.79 1.78-2.79c0.937 0 2.079 1.221 1.976 2.113-0.13 1.13-0.56 6.081-0.561 6.466-1e-3 0.202 2.978 2.127 3.291 2.127 0.035 0 0.131-1.307 0.214-2.905 0.083-1.597 0.211-3.442 0.285-4.1l0.134-1.196h0.951c3.892 0 6.161-5.064 3.709-8.278-0.49-0.642-7.017-4.934-7.503-4.934-0.067 0-2.04 3.183-4.385 7.074m7.164-1.919c2.575 1.534 3.143 2.979 1.727 4.395-1.177 1.178-6.123-0.59-5.293-1.892 0.169-0.265 0.699-1.123 1.177-1.906 0.479-0.783 0.9-1.424 0.936-1.424s0.69 0.372 1.453 0.827m132.81 2.598c-0.868 0.389-1.449 0.783-1.405 0.954 0.04 0.16 0.63 1.55 1.31 3.088 0.679 1.539 1.235 2.883 1.235 2.988 0 0.175-0.588 0.467-3.909 1.936l-1.25 0.552-1.327-2.997c-0.731-1.649-1.401-3.082-1.491-3.184-0.123-0.141-2.801 0.786-3.126 1.081-0.03 0.028 1.34 3.169 3.045 6.981s3.29 7.366 3.521 7.899l0.421 0.969 1.318-0.582c1.895-0.838 1.883-0.658 0.289-4.192-0.792-1.759-1.398-3.229-1.345-3.266 0.27-0.193 4.972-2.211 5.14-2.207 0.107 3e-3 0.744 1.279 1.414 2.836 1.688 3.918 1.485 3.729 3.185 2.966 0.772-0.346 1.405-0.716 1.405-0.822 0-0.17-6.423-14.705-6.801-15.392-0.107-0.194-0.566-0.083-1.629 0.392m-121.64 0.188c0 0.108-1.591 3.607-3.537 7.776-1.946 4.17-3.509 7.606-3.474 7.636 0.035 0.031 0.702 0.376 1.482 0.767l1.419 0.711 0.473-0.928c0.702-1.374 6.826-14.567 6.826-14.703 0-0.113-2.831-1.455-3.07-1.455-0.065 0-0.119 0.088-0.119 0.196m8.656 4.924c-3.714 1.203-7.14 9.887-5.332 13.515 2.041 4.096 8.283 4.694 10.792 1.033 0.291-0.424 0.488-0.8 0.439-0.835-0.05-0.034-0.758-0.321-1.575-0.637l-1.484-0.573-0.68 0.642c-2.09 1.975-5.352 0.066-4.684-2.741 0.507-2.13 2.161-6.022 2.886-6.79 1.574-1.67 4.434-0.641 4.832 1.737 0.166 0.995 0.201 1.03 1.59 1.574 1.7 0.666 1.767 0.619 1.728-1.221-0.085-4.049-4.496-7.005-8.512-5.704m93.468 2.315c-2.598 0.92-4.073 3.23-3.885 6.083 0.157 2.388 1.724 7.283 2.77 8.657 2.61 3.426 8.595 2.729 10.619-1.239 0.49-0.96 0.917-3.851 0.569-3.851-1.157 0-3.313 1.014-3.314 1.559-3e-3 2.128-3.056 3.554-4.607 2.152-0.808-0.731-2.225-4.428-2.797-7.298-0.56-2.809 2.977-4.622 4.933-2.528l0.647 0.693 1.598-0.486 1.598-0.485-0.329-0.636c-1.285-2.486-4.826-3.676-7.802-2.621m-82.173 9.137c-1.114 4.479-2.065 8.254-2.114 8.39-0.049 0.138 0.442 0.366 1.117 0.517 0.663 0.15 1.422 0.329 1.687 0.399 0.449 0.119 0.538-0.103 1.337-3.308 0.611-2.458 0.949-3.435 1.185-3.435 0.503 0 4.947 1.149 5.129 1.326 0.088 0.085-0.191 1.539-0.621 3.23-1.021 4.018-1.075 3.717 0.745 4.152 0.845 0.202 1.57 0.334 1.612 0.292 0.093-0.093 4.141-16.214 4.141-16.491 0-0.275-2.992-1.003-3.193-0.778-0.09 0.1-0.499 1.566-0.909 3.257-0.411 1.692-0.782 3.141-0.825 3.22-0.137 0.252-5.551-1.209-5.551-1.498 0-0.15 0.362-1.687 0.806-3.418 0.443-1.73 0.776-3.168 0.74-3.196-0.065-0.051-3.056-0.803-3.191-0.803-0.039 0-0.982 3.665-2.095 8.144m66.781-5.247c-0.345 0.052-0.631 0.165-0.635 0.251-5e-3 0.085-0.651 4.179-1.435 9.096-1.21 7.59-1.372 8.939-1.073 8.931 0.194-5e-3 0.967-0.138 1.718-0.294l1.365-0.284 0.458-3.162 1.253-0.273c0.689-0.151 2.047-0.422 3.018-0.604l1.765-0.33 0.736 1.34c0.815 1.481 0.84 1.49 2.966 1.044l1.31-0.274-4.681-7.802c-5.191-8.65-4.587-7.969-6.765-7.639m-49.715 1.602c-0.074 0.47-0.178 1.136-0.232 1.481-0.064 0.402 3e-3 0.626 0.186 0.626 0.433 0 4.127 0.475 4.19 0.539 0.031 0.031-0.336 3.177-0.816 6.991-0.536 4.254-0.789 6.989-0.656 7.076 0.265 0.171 2.946 0.466 3.074 0.338 0.05-0.05 0.475-3.202 0.944-7.005l0.852-6.914 1.354 0.103c0.745 0.057 1.763 0.108 2.262 0.114l0.909 0.011 0.17-1.351c0.209-1.652 1.031-1.337-5.632-2.16-7.051-0.872-6.442-0.886-6.605 0.151m33.187 0.705c-3.004 1.069-4.371 4.39-2.986 7.251 0.842 1.739 1.961 2.253 5.567 2.558 2.896 0.244 3.874 1.207 2.981 2.934-0.703 1.36-4.069 1.809-5.992 0.799l-0.956-0.502-0.94 1.124c-1.081 1.29-1.059 1.381 0.533 2.22 2.504 1.32 7.416 0.773 9.352-1.042 2.631-2.467 1.606-7.564-1.681-8.353-0.313-0.075-1.572-0.22-2.797-0.323-3.013-0.251-3.837-0.999-3.135-2.846 0.466-1.226 3.369-1.733 5.127-0.895l0.804 0.383 0.855-0.998c1.079-1.261 1.072-1.348-0.17-2.035-1.407-0.778-4.754-0.919-6.562-0.275m-14.852 0.236c-2.832 0.924-4.237 3.309-3.627 6.153 0.479 2.233 1.807 3.191 5.245 3.786 2.548 0.441 3.167 0.871 3.167 2.201 0 2.196-3.807 2.942-6.367 1.248l-0.822-0.544-1.129 0.979-1.13 0.98 0.513 0.546c2.319 2.469 8.507 2.619 10.835 0.263 1.06-1.071 1.373-1.889 1.389-3.626 0.03-3.325-1.314-4.399-6.56-5.242-1.908-0.306-2.573-2.046-1.278-3.342 0.908-0.907 3.553-0.899 4.79 0.016l0.724 0.536 1.042-1.043c1.008-1.007 1.029-1.056 0.641-1.486-1.085-1.198-5.522-2.049-7.433-1.425m34.953 5.681c0.721 1.293 1.275 2.385 1.232 2.425-0.13 0.122-3.87 0.849-3.944 0.767-0.038-0.041 0.061-0.896 0.219-1.898 0.159-1.002 0.36-2.422 0.449-3.155 0.188-1.561 0.081-1.658 2.044 1.861"
      
      fill="#0A143B"
    />
    
    <path
      d="m188.84 6.402c-54.407 2.835-102.85 26.89-137.15 68.097-4.332 5.205-6.382 7.863-6.202 8.043 0.08 0.08 0.04 0.146-0.089 0.146-1.718 0-16.868 25.152-21.198 35.194-0.27 0.626-0.963 2.215-1.539 3.53-27.252 62.214-19.127 138.01 20.476 191 5.326 7.125 10.84 13.293 19.846 22.198 16.694 16.507 35.608 29.594 56.044 38.779 3.934 1.768 9.283 3.985 9.901 4.105 0.188 0.036 0.393 0.119 0.456 0.185 0.501 0.526 15.762 5.512 18.337 5.992 0.251 0.046 0.609 0.149 0.797 0.228 0.613 0.257 9.623 2.431 9.999 2.413 0.47-0.024 0.578 0.01-3.962-1.242-21.428-5.91-43.731-16.479-61.328-29.062-1.908-1.364-3.531-2.48-3.605-2.48-0.075 0-0.447-0.311-0.827-0.691s-1.064-0.966-1.52-1.303c-10.11-7.462-23.308-21.312-30.632-32.145-0.731-1.081-1.494-2.094-1.695-2.251-0.202-0.156-0.299-0.285-0.217-0.285s-1.061-1.87-2.54-4.157c-5.482-8.477-9.338-15.236-14-24.544-2.612-5.215-3.597-7.304-5.852-12.415-20.141-45.64-19.498-101.98 1.688-148.01 0.447-0.97 0.76-1.765 0.695-1.765-0.064 0-0.015-0.128 0.108-0.285 0.124-0.156 1.452-2.701 2.95-5.654 14.51-28.594 38.447-55.135 66.091-73.28 1.441-0.946 2.748-1.876 2.905-2.068 0.156-0.192 0.285-0.281 0.285-0.198s1.185-0.565 2.634-1.44c50.842-30.705 117.8-34.54 172.78-9.897 24.121 10.813 46.715 28.301 66.287 51.307 1.413 1.66 2.654 3.019 2.759 3.019s0.19 0.108 0.19 0.241 0.8 1.235 1.777 2.449c10.99 13.651 20.902 29.861 26.593 43.487 1.436 3.438 1.146 2.239-0.484-2.002-3.12-8.113-8.135-18.992-11.597-25.155-5.245-9.336-8.86-15.026-14.118-22.225-2.733-3.74-7.021-9.138-8.421-10.599-0.571-0.596-1.039-1.158-1.039-1.248s-0.36-0.48-0.801-0.866c-0.44-0.387-0.805-0.782-0.81-0.878-0.035-0.619-12.223-12.882-12.583-12.66-0.125 0.078-0.165 0.041-0.089-0.082 0.11-0.179-5.063-5.087-5.362-5.087-0.047 0-0.591-0.474-1.211-1.055-3.924-3.677-19.74-15.421-20.767-15.421-0.16 0-0.29-0.079-0.29-0.175 0-0.531-11.046-6.897-17.829-10.276-29.053-14.474-62.381-21.262-95.839-19.518m137.94 79.884c-11.713 27.408-17.725 41.461-18.001 42.074-0.17 0.376-1.355 3.143-2.634 6.15s-2.508 5.877-2.731 6.378c-0.223 0.502-1.499 3.474-2.835 6.606-12.312 28.865-25.522 59.568-25.629 59.568-0.072 0-0.633-1.205-1.245-2.677-0.613-1.472-1.175-2.728-1.249-2.79-0.073-0.063-0.151-0.219-0.173-0.346-0.022-0.128-1.032-2.588-2.245-5.467-1.213-2.88-2.697-6.414-3.297-7.855-0.601-1.441-2.474-5.9-4.164-9.909s-3.806-9.032-4.702-11.162c-0.897-2.129-2.025-4.794-2.506-5.922-0.482-1.128-1.363-3.203-1.959-4.613l-1.084-2.562h-34.607-34.607l0.16 0.512c0.087 0.282 0.972 2.665 1.966 5.296 0.993 2.631 4.559 12.113 7.924 21.071 3.364 8.958 6.8 18.081 7.635 20.273 0.835 2.193 2.131 5.627 2.88 7.631 0.749 2.005 1.619 4.311 1.933 5.125 0.314 0.815 0.765 1.994 1.002 2.62 0.236 0.626 1.246 3.292 2.242 5.923 0.997 2.631 4.99 13.24 8.873 23.576 7.75 20.626 12.994 34.563 16.887 44.875 1.396 3.695 3.469 9.205 4.609 12.243l2.071 5.524h32.4c25.655 0 32.444-0.059 32.611-0.284 0.116-0.157 0.653-1.413 1.193-2.791 0.541-1.378 1.221-3.069 1.512-3.758 0.291-0.69 1.606-3.918 2.922-7.176 2.479-6.138 10.504-25.928 15.099-37.236 1.45-3.567 2.654-6.591 2.676-6.72s0.152-0.44 0.289-0.691c0.294-0.538 5.574-13.563 5.633-13.895 0.023-0.125 0.164-0.451 0.314-0.724s0.567-1.247 0.925-2.164c0.889-2.274 5.004-12.438 5.378-13.285 0.167-0.376 0.609-1.452 0.982-2.392 0.374-0.94 1.681-4.168 2.904-7.175 4.288-10.539 6.779-16.674 8.877-21.868 1.165-2.882 2.476-6.111 2.914-7.176 0.793-1.926 3.262-8.006 6.429-15.831 0.913-2.255 2.392-5.894 3.287-8.087 0.895-2.192 2.089-5.134 2.652-6.537l1.025-2.551-0.789-2.574c-2.293-7.479-3.901-12.483-4.01-12.483-0.068 0-2.345 5.561-5.06 12.357-33.954 84.994-61.303 153.38-61.37 153.45-0.046 0.051-11.437-0.08-25.313-0.29-13.877-0.21-25.604-0.38-26.06-0.377l-0.828 5e-3 -1.251-3.36c-1.76-4.728-9.439-25.106-10.237-27.164-0.364-0.94-1.06-2.785-1.547-4.1-0.487-1.316-1.182-3.161-1.545-4.101-0.362-0.939-2.822-7.448-5.465-14.464s-7.28-19.317-10.304-27.335c-15.853-42.035-20.046-53.263-19.935-53.374 0.134-0.133 43.482-0.551 46.549-0.448l1.896 0.063 1.479 3.417c0.813 1.879 2.232 5.16 3.153 7.289 5.302 12.261 7.92 18.302 8.193 18.907 0.17 0.376 0.587 1.35 0.926 2.164s0.682 1.532 0.762 1.595c0.08 0.062 0.179 0.267 0.22 0.455 0.071 0.328 1.796 4.349 6.695 15.604 1.254 2.881 2.874 6.623 3.601 8.314 0.726 1.691 1.903 4.408 2.615 6.037 0.712 1.628 1.366 3.146 1.453 3.371 0.111 0.287 1.237-2.121 3.728-7.972 1.964-4.611 4.71-11.049 6.104-14.306s2.892-6.794 3.329-7.859 1.441-3.422 2.23-5.239c2.196-5.053 4.498-10.52 4.547-10.798 0.025-0.137 0.205-0.557 0.401-0.933 0.197-0.376 1.049-2.324 1.894-4.328 0.845-2.005 1.723-4.081 1.952-4.613s0.345-0.97 0.259-0.972c-0.087-2e-3 -0.048-0.078 0.086-0.17 0.135-0.092 0.941-1.808 1.791-3.812 1.795-4.232 4.507-10.616 7.256-17.085 1.065-2.505 2.807-6.606 3.871-9.111 4.592-10.814 7.283-17.131 7.569-17.768 0.351-0.78 3.011-7.047 4.787-11.276 0.658-1.566 2.037-4.795 3.065-7.175 2.887-6.685 3.64-8.542 3.467-8.546-0.088-2e-3 -0.05-0.078 0.085-0.17 0.134-0.093 1.044-2.064 2.022-4.382 0.979-2.318 2.28-5.376 2.893-6.796 1.504-3.488 1.504-3.324-8e-3 -4.935-0.706-0.752-2.262-2.413-3.458-3.692l-2.174-2.325-4.06 9.501m-166.08 89.796c0.617 0.626 1.173 1.139 1.236 1.139s-0.391-0.513-1.008-1.139-1.173-1.139-1.236-1.139c-0.062 0 0.391 0.513 1.008 1.139m-5.239 9.567c0.617 0.627 1.173 1.139 1.236 1.139 0.062 0-0.391-0.512-1.008-1.139-0.617-0.626-1.173-1.139-1.236-1.139s0.391 0.513 1.008 1.139m214.98 21.804c0.347 0.052 0.859 0.051 1.139-3e-3s-3e-3 -0.097-0.629-0.096c-0.627 2e-3 -0.856 0.046-0.51 0.099m-13.67 0.221c0.219 0.057 0.578 0.057 0.797 0s0.04-0.104-0.399-0.104c-0.438 0-0.617 0.047-0.398 0.104m1.372 0.982c0 0.564 0.044 0.794 0.098 0.513 0.055-0.282 0.055-0.744 0-1.025-0.054-0.282-0.098-0.052-0.098 0.512m14.365 3.872c0 0.94 0.04 1.325 0.089 0.855s0.049-1.239 0-1.709-0.089-0.085-0.089 0.854m-10.254 1.139c0 0.815 0.041 1.148 0.092 0.741 0.05-0.407 0.05-1.074 0-1.481-0.051-0.407-0.092-0.074-0.092 0.74m-7.058 0.456c0 0.94 0.04 1.324 0.089 0.854s0.049-1.238 0-1.708-0.089-0.086-0.089 0.854m4.308 1.533c0.47 0.049 1.239 0.049 1.709 0 0.469-0.049 0.085-0.09-0.855-0.09-0.939 0-1.324 0.041-0.854 0.09m0.684 3.417c0.469 0.049 1.238 0.049 1.708 0 0.47-0.05 0.085-0.09-0.854-0.09-0.94 0-1.324 0.04-0.854 0.09m-247.44 7.194c0 0.039 0.333 0.373 0.741 0.74l0.74 0.67-0.669-0.741c-0.624-0.69-0.812-0.845-0.812-0.669m98.007 144.05c0.219 0.058 0.578 0.058 0.797 0 0.22-0.057 0.04-0.104-0.398-0.104-0.439 0-0.618 0.047-0.399 0.104"
      fill="#426266"
    />
  </g>
</svg>